<svg id="Layer_1" xmlns="http://www.w3.org/2000/svg" xmlns:xlink="http://www.w3.org/1999/xlink" x="0px" y="0px" viewBox="0 0 1035.2 175.7" xml:space="preserve" class="logo svgchanger spin"><style type="text/css">
	.st0{fill:#EF285F;}
	.st1{fill:#1E8EA6;}
</style><g><path class="st0" d="M104,4.4c0,0,16,0.5,15,12.6l0.3,12.5c0,0,0.4,9.2-10.5,10.1L53,40.9c0,0-7.8-0.3-7.8,5.2V64 c0,0,1,4.7,6.2,4.7h34.3c0,0,12.4-0.9,12.4,8.5l-0.4,15.2c0,0-0.2,6.5-10.6,8.2c0,0-24,2-33.3,3.1c0,0-8.7,0.7-8.7,5.8v48.5 c0,0,0.5,11.6-10,11.6h-19c0,0-10.1-0.3-10.1-8.2l-3.9-143c0,0-2.3-13.9,17.9-13.9H104z"></path><path class="st0" d="M207.4,36c0,0-5.7-14.7,7.5-17.2c0,0,6.2-1.7,16.3-2.5c0,0,15.3-2.9,18.5,10.7c0,0,10.8,73.6,4,116.2 c0,0-3.5,29.1-54.4,29.4c0,0-68.5,3.1-70.8-36.1c0,0-3.7-43.5,2.1-109.3c0,0,1.1-18.5,18.8-18.5h15.4c0,0,10.9,0.8,10.9,12.3 c0,0-5.8,73.1-4.5,100.1c0,0-1.6,18.5,20.3,18.5c0,0,18.7,2.1,20.3-14C211.9,125.7,216.3,72.3,207.4,36z"></path><path class="st0" d="M261.9,17.7c0,0-2.2-13.7,22-13.7c0,0,17.4-2,25.3,9.9l40.5,69c0,0,0.6,1.3,2.5,0.7c0,0,2.1,0.3,1.8-2.3 c0,0-1-45.5-1.9-54.5c0,0-1.6-17.8,25.1-17.8c0,0,21.7-1.6,23.8,11.9c0,0,0.4,15.7,0,29.8c0,0-5.2,73.3-5,99.9 c0,0,4.3,23.3-21.2,23.3c0,0-13.5,1.3-21.2-8.9l-41-70.1c0,0-0.8-1.3-3-0.8c0,0-1.9,0.4-1.9,2.4l-0.9,52.8c0,0,1.8,15.5-21.7,15.5 c0,0-17.7,0.5-17.7-16.3L261.9,17.7z"></path></g><path class="st1" d="M970.6,12.1c-14.8-1.9-30.7,2.1-44.7,11.5c-13.7,9.1-23.5,22.2-26.9,35.9c-0.9,3.6-1.1,6.7-1.4,11.8 c-1.3,20.2-2.8,43.2,8.2,64.5c3.4,6.5,21.7,31.6,49.6,34.7c1.8,0.2,3.6,0.3,5.4,0.3c12.8,0,25.8-5,37.1-14.3 c17.1-14.2,28.3-36.3,30-59.2C1030.7,60.1,1008.3,17,970.6,12.1z M994.1,94.6c-1,13.7-7.9,27.4-17.8,35.6c-5.7,4.7-11.8,7-17,6.4 c-11.4-1.3-21.6-14-23.4-16.9c-6.5-12.9-5.4-29.9-4.3-46.4c0.2-2.5,0.3-5.1,0.5-5.7c3.3-13.2,22.2-23.6,34.3-22 C983.5,48,995.6,74.3,994.1,94.6z M887.7,25.7c0,0,0.3,15.1,0,28.7c0,0-3.8,70.6-3.6,96.2c0,0,3.1,22.4-15.3,22.4 c0,0-9.7,1.2-15.3-8.5L823.9,97c0,0-0.6-1.3-2.1-0.8c0,0-1.4,0.3-1.4,2.3l-0.7,50.9c0,0,1.3,14.9-15.7,14.9c0,0-12.8,0.5-12.8-15.7 l-3.9-126.1c0,0-1.6-13.2,15.8-13.2c0,0,12.5-1.9,18.3,9.6l29.2,66.5c0,0,0.5,1.3,1.8,0.7c0,0,1.5,0.3,1.3-2.2 c0,0-0.8-43.8-1.3-52.5c0,0-1.2-17.2,18.1-17.2C870.6,14.2,886.2,12.7,887.7,25.7z M526.8,43.5v8.4c0,0-1.2,12.6-16,12.6 c0,0-10.1,0.1-12.1-5.5c0,0-0.9-3-1-5.4c0,0-1.2-8.5-11.9-8.5c0,0-11.1,0.2-14.3,9.6c0,0-6,27.5,1.7,74.4c0,0,1.7,10.1,10.7,10.1 c0,0,5.8,0.7,15.5-7.9c0,0,14.2-11.1,22,0.5c0,0,7.9,12.5-0.2,20.9c0,0-14.2,18.1-37.1,18.1c0,0-31.3,0-36.9-26.7 c0,0-10.7-59.4-4.5-100.7c0,0,3.3-31.3,46.3-32.2C489,11.3,526.8,6.7,526.8,43.5z M775.9,64.3v92.3c0,12.3-14.6,12.3-14.6,12.3 c-13.2,0-12.5-12.8-12.5-12.8l-3.5-89.8c-0.5-15.1,16-13.7,16-13.7C775.5,52.7,775.9,64.3,775.9,64.3z M746.5,32.7L745.3,11 c0-8.9,8.4-9.3,8.4-9.3h4.2c19,0,16.5,11.5,16.5,11.5l-1,21.4c0,7.7-12.7,7.3-12.7,7.3C746.9,41.9,746.5,32.7,746.5,32.7z  M735.8,119.3c0,0,1,29.2-12.2,42.5c0,0-6.4,9.2-34.7,9.2c0,0-35.4,4-38.2-27v-19.8c0,0-0.7-16.4,13.7-16.4c0,0,13.4-0.3,13.4,9.4 l-0.5,10.6c0,0,0,10.3,8,10.3h11.3c0,0,13.6,0.2,13.6-11.3c0,0,0.5-9.9-5.9-13.6c0,0-34.7-18.3-47.1-32.5c0,0-8.1-7.3-8.1-24.1 l1.5-21.5c0,0,1.5-24.1,49.5-24.1c0,0,30-1.7,31.4,24.6V56c0,0,1.4,14.8-13.2,14.8c0,0-11.1,0.9-11.1-9c0,0,0.5-18.1-14.4-18.1 c0,0-15.3,0.2-15.3,13.5c0,0,0,6.5,7.7,11.4l22.3,11.6C707.3,80.1,737.2,94.9,735.8,119.3z M605.4,20.5c-3.5-10.7-13.7-9.4-13.7-9.4 c-9.3,0-11.4,7.3-11.4,7.3l-43.1,126.3c-1,2.8-1.8,8.1-1.8,8.1c-0.5,13.4,16.4,13.4,16.4,13.4c10.7,0,14-11,14-11l2.4-8.8 c1-3,4.3-2.8,4.3-2.8l34.9-0.1c3,0,3.7,2.7,3.7,2.7l3.9,18.8c1.9,10.7,17.6,5.8,17.6,5.8c16.7-4.6,12.3-17.9,12.3-17.9L605.4,20.5z  M598.9,113h-17.8c0,0-3.3,0.3-2.2-3.8l11.5-36.9c0,0,0.7-1.6,1.6-1.6c0,0,1.3-0.4,1.9,1.5L602,108C602,108,604.1,113,598.9,113z"></path></svg>